<svg xmlns="http://www.w3.org/2000/svg" viewBox="0 0 1600 900">
  <defs>
    <linearGradient id="bg" x1="0" y1="0" x2="1" y2="1">
      <stop offset="0%" stop-color="#1d0e0d"/>
      <stop offset="50%" stop-color="#0f0c0e"/>
      <stop offset="100%" stop-color="#24110d"/>
    </linearGradient>
    <radialGradient id="glow" cx="50%" cy="50%" r="50%">
      <stop offset="0%" stop-color="#d77c2f" stop-opacity="0.45"/>
      <stop offset="100%" stop-color="#d77c2f" stop-opacity="0"/>
    </radialGradient>
  </defs>
  <rect width="1600" height="900" fill="url(#bg)"/>
  <circle cx="1250" cy="180" r="280" fill="url(#glow)"/>
  <circle cx="350" cy="700" r="220" fill="url(#glow)" opacity="0.55"/>
  <g fill="#ffffff" fill-opacity="0.05">
    <path d="M0 620c140-70 260-75 390 10s220 125 365 85 205-155 366-159 303 84 479 30v314H0z"/>
    <path d="M0 710c178-47 257-10 399 44s281 77 425 31 292-137 450-130 257 59 326 82v163H0z"/>
  </g>
  <g fill="#000" fill-opacity="0.22">
    <rect x="0" y="0" width="1600" height="900"/>
  </g>
</svg>
